<svg aria-hidden="true" style="position: absolute; width: 0; height: 0; overflow: hidden;" version="1.1" xmlns="http://www.w3.org/2000/svg" xmlns:xlink="http://www.w3.org/1999/xlink">
    <defs>
        <symbol id="icon-favicon" viewBox="0 0 32 32">
            <path d="M27.942 14.832c-0.646-6.608-6.535-11.435-13.141-10.772-6.581 0.661-11.387 6.523-10.743 13.107s6.493 11.403 13.078 10.778c6.609-0.629 11.452-6.505 10.806-13.113zM18.997 6.831c0.146-0 0.256 0.029 0.392 0.066l0.029 0.008c0.053 0.267-0 0.392-0.14 0.619-0.245 0.398-0.517 0.78-0.79 1.162-0.481 0.674-0.962 1.347-1.292 2.114-0.715 1.664-0.548 3.604-0.38 5.565 0.147 1.716 0.296 3.448-0.144 5.023-0.529 1.895-1.857 3.135-3.52 4.059-0.092 0.015-0.194 0.008-0.292 0-0.021-0.002-0.041-0.003-0.061-0.005-0.013-0.001-0.025-0.002-0.037-0.002l-0.016-0.030c-0.095-0.18-0.101-0.191-0.032-0.396 0.089-0.266 0.266-0.538 0.433-0.795 0.064-0.098 0.126-0.194 0.181-0.286 0.578-0.963 1.145-2.003 1.322-3.127 0.222-1.403 0.104-2.848-0.014-4.292-0.15-1.832-0.299-3.666 0.245-5.415 0.668-2.149 2.232-3.27 4.114-4.271z"></path>
        </symbol>
    </defs>
</svg>